<svg width="52" height="52" viewBox="0 0 52 52" fill="none" xmlns="http://www.w3.org/2000/svg">
<rect width="52" height="52" rx="5" fill="white"/>
<path d="M27.0729 15.9766C28.0055 15.9766 28.4182 15.9774 28.7586 16.0079C32.543 16.3467 35.5423 19.3459 35.8811 23.1303C35.9116 23.4707 35.9124 23.8835 35.9124 24.8161V25.8885C35.9124 26.3372 36.2762 26.701 36.7249 26.701C37.1736 26.701 37.5374 26.3372 37.5374 25.8885V24.7614C37.5374 23.8981 37.5374 23.4075 37.4996 22.9854C37.0907 18.418 33.4709 14.7983 28.9035 14.3893C28.4814 14.3515 27.9908 14.3515 27.1274 14.3516H26.0004C25.5517 14.3516 25.1879 14.7153 25.1879 15.1641C25.1879 15.6128 25.5517 15.9766 26.0004 15.9766L27.0729 15.9766Z" fill="#CD0001"/>
<path d="M20.7048 17.3581C19.565 16.3108 17.8131 16.3108 16.6734 17.3581C16.6267 17.401 16.5769 17.4509 16.5122 17.5156L15.5399 18.4879C14.5615 19.4662 14.1508 20.8767 14.4509 22.2273C16.1539 29.8907 22.1388 35.8756 29.8022 37.5786C31.1528 37.8787 32.5633 37.468 33.5416 36.4896L34.5138 35.5174C34.5786 35.4527 34.6285 35.4028 34.6714 35.3561C35.7187 34.2164 35.7187 32.4645 34.6714 31.3247C34.6285 31.278 34.5786 31.2281 34.5138 31.1634L32.9221 29.5717C31.817 28.4666 30.1481 28.1505 28.7154 28.775C27.8952 29.1325 26.9398 28.9516 26.3071 28.3189L23.7106 25.7224C23.0779 25.0897 22.897 24.1343 23.2545 23.3141C23.879 21.8814 23.5629 20.2125 22.4578 19.1074L20.866 17.5156C20.8013 17.4509 20.7515 17.401 20.7048 17.3581Z" fill="#CD0001"/>
<path d="M26.7664 18.1817C26.3176 18.1817 25.9539 18.5455 25.9539 18.9942C25.9539 19.443 26.3176 19.8067 26.7664 19.8067H27.3792C27.4737 19.8067 27.5124 19.8067 27.5439 19.8072C30.0351 19.8429 32.046 21.8538 32.0816 24.345C32.0821 24.3765 32.0821 24.4151 32.0821 24.5097V25.1225C32.0821 25.5712 32.4459 25.935 32.8946 25.935C33.3433 25.935 33.7071 25.5712 33.7071 25.1225V24.5018C33.7071 24.4176 33.7071 24.3664 33.7065 24.3217C33.6582 20.9512 30.9376 18.2306 27.5672 18.1824C27.5225 18.1817 27.4712 18.1817 27.387 18.1817H26.7664Z" fill="#CD0001"/>
</svg>
