<svg width="52" height="52" viewBox="0 0 52 52" fill="none" xmlns="http://www.w3.org/2000/svg">
<rect width="52" height="52" rx="5" fill="#CD0001"/>
<path d="M25.464 34.288C24.456 34.288 23.56 34.144 22.776 33.856C22.008 33.568 21.352 33.112 20.808 32.488C20.264 31.864 19.856 31.04 19.584 30.016C19.312 28.976 19.176 27.712 19.176 26.224C19.176 24.544 19.312 23.128 19.584 21.976C19.856 20.824 20.248 19.904 20.76 19.216C21.288 18.512 21.936 18.008 22.704 17.704C23.472 17.4 24.36 17.248 25.368 17.248C26.584 17.248 27.592 17.472 28.392 17.92C29.208 18.368 29.808 18.984 30.192 19.768C30.592 20.536 30.792 21.432 30.792 22.456H27.552C27.552 21.896 27.472 21.424 27.312 21.04C27.152 20.64 26.904 20.336 26.568 20.128C26.232 19.92 25.808 19.816 25.296 19.816C24.544 19.816 23.968 20.016 23.568 20.416C23.184 20.8 22.92 21.368 22.776 22.12C22.648 22.872 22.576 23.784 22.56 24.856C22.72 24.696 22.96 24.504 23.28 24.28C23.616 24.056 24.032 23.864 24.528 23.704C25.024 23.528 25.56 23.44 26.136 23.44C27.272 23.44 28.224 23.672 28.992 24.136C29.776 24.584 30.36 25.208 30.744 26.008C31.128 26.808 31.32 27.736 31.32 28.792C31.32 29.928 31.064 30.912 30.552 31.744C30.056 32.56 29.368 33.192 28.488 33.64C27.624 34.072 26.616 34.288 25.464 34.288ZM25.344 31.696C25.936 31.696 26.424 31.576 26.808 31.336C27.192 31.08 27.48 30.736 27.672 30.304C27.864 29.856 27.96 29.36 27.96 28.816C27.96 28.24 27.864 27.736 27.672 27.304C27.48 26.872 27.192 26.536 26.808 26.296C26.424 26.04 25.936 25.912 25.344 25.912C24.768 25.912 24.28 26.04 23.88 26.296C23.496 26.536 23.208 26.872 23.016 27.304C22.824 27.736 22.728 28.24 22.728 28.816C22.728 29.376 22.824 29.88 23.016 30.328C23.208 30.76 23.496 31.096 23.88 31.336C24.28 31.576 24.768 31.696 25.344 31.696Z" fill="white"/>
</svg>
